<svg xmlns="http://www.w3.org/2000/svg" version="1.1" xmlns:xlink="http://www.w3.org/1999/xlink" xmlns:svgjs="http://svgjs.dev/svgjs" viewBox="0 0 1422 800" width="1422" height="800"><g transform="scale(1.6) rotate(76) translate(37 -5) skewX(0) skewY(-13)" transform-origin="711 400"><rect width="2844" height="1600" x="-711" y="-400" fill="url(#rrreplicate-pattern1)"></rect><rect width="2844" height="1600" x="-711" y="-400" fill="url(#rrreplicate-pattern2)"></rect></g><defs><pattern id="rrreplicate-pattern1" width="398" height="398" patternUnits="userSpaceOnUse" patternTransform="rotate(219)" stroke-width="3.6" fill="none" stroke="#ff9f00" stroke-opacity="0.76">
      <line x1="16.583333333333332" y1="0" x2="16.583333333333332" y2="398"></line><line x1="49.75" y1="0" x2="49.75" y2="398"></line><line x1="82.91666666666666" y1="0" x2="82.91666666666666" y2="398"></line><line x1="116.08333333333333" y1="0" x2="116.08333333333333" y2="398"></line><line x1="149.25" y1="0" x2="149.25" y2="398"></line><line x1="182.41666666666666" y1="0" x2="182.41666666666666" y2="398"></line><line x1="215.58333333333334" y1="0" x2="215.58333333333334" y2="398"></line><line x1="248.75" y1="0" x2="248.75" y2="398"></line><line x1="281.91666666666663" y1="0" x2="281.91666666666663" y2="398"></line><line x1="315.0833333333333" y1="0" x2="315.0833333333333" y2="398"></line><line x1="348.24999999999994" y1="0" x2="348.24999999999994" y2="398"></line><line x1="381.41666666666663" y1="0" x2="381.41666666666663" y2="398"></line>
      </pattern><pattern id="rrreplicate-pattern2" width="398" height="398" patternUnits="userSpaceOnUse" patternTransform="rotate(188)" stroke-opacity="0.67" stroke-width="4" fill="none" stroke="#cf43ec">
      <line x1="19.9" y1="0" x2="19.9" y2="398"></line><line x1="59.699999999999996" y1="0" x2="59.699999999999996" y2="398"></line><line x1="99.5" y1="0" x2="99.5" y2="398"></line><line x1="139.29999999999998" y1="0" x2="139.29999999999998" y2="398"></line><line x1="179.1" y1="0" x2="179.1" y2="398"></line><line x1="218.9" y1="0" x2="218.9" y2="398"></line><line x1="258.7" y1="0" x2="258.7" y2="398"></line><line x1="298.49999999999994" y1="0" x2="298.49999999999994" y2="398"></line><line x1="338.29999999999995" y1="0" x2="338.29999999999995" y2="398"></line><line x1="378.09999999999997" y1="0" x2="378.09999999999997" y2="398"></line>
      </pattern></defs></svg>